<?xml version="1.0" encoding="utf-8"?>
<!-- Generator: Adobe Illustrator 16.0.0, SVG Export Plug-In . SVG Version: 6.00 Build 0)  -->
<!DOCTYPE svg PUBLIC "-//W3C//DTD SVG 1.1//EN" "http://www.w3.org/Graphics/SVG/1.1/DTD/svg11.dtd">
<svg version="1.1" id="Layer_1" xmlns="http://www.w3.org/2000/svg" xmlns:xlink="http://www.w3.org/1999/xlink" x="0px" y="0px"
	 width="42.078px" height="27.015px" viewBox="191.933 142.459 42.078 27.015"
	 enable-background="new 191.933 142.459 42.078 27.015" xml:space="preserve">
<g>
	<path fill="#969696" d="M232.882,169.474h-39.82c-0.624,0-1.129-0.506-1.129-1.129v-24.302c0-0.623,0.505-1.128,1.129-1.128
		c0.623,0,1.128,0.505,1.128,1.128v23.173h37.564v-22.5h-31.369l13.405,13.646l12.929-10.855c0.478-0.399,1.189-0.339,1.59,0.139
		s0.339,1.189-0.138,1.59l-13.729,11.526c-0.451,0.379-1.118,0.346-1.531-0.073l-16.021-16.31c-0.319-0.324-0.412-0.808-0.236-1.228
		c0.176-0.419,0.586-0.691,1.041-0.691h35.188c0.624,0,1.128,0.505,1.128,1.129v24.757
		C234.011,168.968,233.506,169.474,232.882,169.474z"/>
</g>
<g>
	<path fill="#969696" d="M227.855,154.46c-0.623,0-1.128-0.506-1.128-1.129v-4.418l-4.178,0.106
		c-0.622,0.02-1.142-0.476-1.157-1.099s0.476-1.142,1.1-1.157l5.335-0.137c0.302-0.013,0.598,0.108,0.816,0.32
		c0.218,0.213,0.341,0.503,0.341,0.808v5.576C228.984,153.955,228.478,154.46,227.855,154.46z"/>
</g>
</svg>
