<?xml version="1.0" encoding="utf-8"?>
<!-- Generator: Adobe Illustrator 16.0.0, SVG Export Plug-In . SVG Version: 6.00 Build 0)  -->
<!DOCTYPE svg PUBLIC "-//W3C//DTD SVG 1.1//EN" "http://www.w3.org/Graphics/SVG/1.1/DTD/svg11.dtd">
<svg version="1.1" id="Layer_1" xmlns="http://www.w3.org/2000/svg" xmlns:xlink="http://www.w3.org/1999/xlink" x="0px" y="0px"
	 width="113.386px" height="113.386px" viewBox="227.272 56.037 113.386 113.386"
	 enable-background="new 227.272 56.037 113.386 113.386" xml:space="preserve" class="svg replaced-svg">
<g>
	<g>
		<path class="svg_color" d="M254.361,92.35c-2.38,2.38-2.38,6.099,0,8.479c1.19,1.19,2.678,1.785,4.165,1.785
			c1.637-0.149,3.124-0.744,4.314-1.785c2.38-2.38,2.38-6.099,0-8.479C260.609,90.118,256.593,90.118,254.361,92.35z"/>
		<path class="svg_color" d="M275.485,107.523c-1.636,0-3.123,0.595-4.165,1.785c-1.19,1.19-1.785,2.678-1.785,4.166
			c0,1.636,0.595,3.124,1.785,4.166c1.19,1.19,2.678,1.785,4.165,1.785c1.637,0,3.124-0.595,4.166-1.785c2.38-2.38,2.38-6.1,0-8.48
			C278.461,108.119,276.974,107.523,275.485,107.523z"/>
		<path class="svg_color" d="M288.28,79.556c-1.19,1.19-1.785,2.678-1.785,4.166c0,1.636,0.595,3.124,1.785,4.166
			c1.189,1.19,2.678,1.785,4.165,1.785c1.636,0,3.124-0.595,4.165-1.785c1.19-1.19,1.785-2.678,1.785-4.166
			c0-1.636-0.595-3.124-1.785-4.166C294.528,77.176,290.512,77.176,288.28,79.556z"/>
		<path class="svg_color" d="M313.569,96.366c-2.23-2.231-6.099-2.231-8.479,0c-1.19,1.19-1.786,2.678-1.786,4.166
			c0,1.636,0.596,3.124,1.786,4.165c1.189,1.19,2.678,1.786,4.165,1.786c1.636,0,3.124-0.595,4.165-1.786
			c1.19-1.19,1.785-2.678,1.785-4.165C315.355,98.895,314.611,97.407,313.569,96.366z"/>
	</g>
	<g>
		
			<rect x="293.526" y="90.581" transform="matrix(-0.7071 -0.7071 0.7071 -0.7071 448.6697 369.9879)" class="svg_color" width="14.876" height="2.975"/>
	</g>
	<g>
		
			<rect x="282.526" y="85.817" transform="matrix(-0.8667 -0.4988 0.4988 -0.8667 481.0544 325.4721)" class="svg_color" width="2.976" height="25.29"/>
	</g>
	<g>
		
			<rect x="259.562" y="103.506" transform="matrix(-0.7071 -0.7071 0.7071 -0.7071 381.569 368.0275)" class="svg_color" width="14.878" height="2.975"/>
	</g>
	<g>
		<rect x="308.958" y="117.937" class="svg_color" width="9.967" height="29.753"/>
		<rect x="289.023" y="100.978" class="svg_color" width="9.968" height="46.712"/>
		<rect x="268.94" y="131.326" class="svg_color" width="9.967" height="16.364"/>
		<rect x="249.006" y="114.367" class="svg_color" width="9.967" height="33.175"/>
	</g>
</g>
</svg>
