<?xml version="1.0" encoding="utf-8"?>
<!-- Generator: Adobe Illustrator 16.0.0, SVG Export Plug-In . SVG Version: 6.00 Build 0)  -->
<!DOCTYPE svg PUBLIC "-//W3C//DTD SVG 1.1//EN" "http://www.w3.org/Graphics/SVG/1.1/DTD/svg11.dtd">
<svg version="1.1" id="Layer_1" xmlns="http://www.w3.org/2000/svg" xmlns:xlink="http://www.w3.org/1999/xlink" x="0px" y="0px"
	 width="20.917px" height="17.727px" viewBox="0 0 20.917 17.727" enable-background="new 0 0 20.917 17.727" xml:space="preserve">
<path fill="#89181A" d="M10.458,14.323c1.485,0,2.615-1.13,2.615-2.615c0-1.484-1.129-2.614-2.615-2.614
	c-1.484,0-2.613,1.129-2.613,2.614C7.845,13.214,8.974,14.323,10.458,14.323z M1.485,16.937c-0.753-14.203,18.678-14.203,17.926,0
	c0,0.376,0,0.376-0.377,0.376H1.862C1.485,17.313,1.485,17.313,1.485,16.937z M20.917,4.616C16.064-0.989,4.853-0.989,0,4.616
	l1.861,2.615L5.229,5.37c0.753-0.376,0.753-1.861,0.753-1.861c1.862-1.129,7.091-1.129,8.974,0c0,0,0,1.484,0.752,1.861l3.369,1.861
	L20.917,4.616z"/>
</svg>
