<?xml version="1.0" encoding="utf-8"?>
<!-- Generator: Adobe Illustrator 16.0.0, SVG Export Plug-In . SVG Version: 6.00 Build 0)  -->
<!DOCTYPE svg PUBLIC "-//W3C//DTD SVG 1.1//EN" "http://www.w3.org/Graphics/SVG/1.1/DTD/svg11.dtd">
<svg version="1.1" id="Layer_1" xmlns="http://www.w3.org/2000/svg" xmlns:xlink="http://www.w3.org/1999/xlink" x="0px" y="0px"
	 width="20.917px" height="17.726px" viewBox="163.835 120.879 20.917 17.726"
	 enable-background="new 163.835 120.879 20.917 17.726" xml:space="preserve">
<path fill="#FFFFFF" d="M174.293,134.79c1.485,0,2.615-1.13,2.615-2.615c0-1.485-1.129-2.615-2.615-2.615
	c-1.485,0-2.614,1.129-2.614,2.615C171.68,133.68,172.809,134.79,174.293,134.79z M165.32,137.404
	c-0.753-14.203,18.678-14.203,17.926,0c0,0.376,0,0.376-0.377,0.376h-17.172C165.32,137.78,165.32,137.78,165.32,137.404z
	 M184.752,125.083c-4.853-5.605-16.064-5.605-20.917,0l1.862,2.615l3.367-1.861c0.753-0.376,0.753-1.862,0.753-1.862
	c1.862-1.129,7.091-1.129,8.973,0c0,0,0,1.485,0.753,1.862l3.368,1.861L184.752,125.083z"/>
</svg>
